<svg width="299" height="137" viewBox="0 0 299 137" fill="none" xmlns="http://www.w3.org/2000/svg">
<path d="M0 0H299V91.0268C299 103.22 292.847 114.913 281.896 123.535C270.944 132.156 256.09 137 240.602 137H58.3984C42.9102 137 28.0563 132.156 17.1045 123.535C6.15268 114.913 0 103.22 0 91.0268L0 0Z" fill="#14274A"/>
<path d="M103.31 100.675C103.23 100.655 103.14 100.62 103.04 100.57C102.95 100.53 102.88 100.47 102.83 100.39C102.83 100.04 102.82 99.695 102.8 99.355C102.79 99.005 102.785 98.655 102.785 98.305C102.785 97.765 102.8 97.225 102.83 96.685C102.87 96.145 102.89 95.605 102.89 95.065C102.81 95.925 102.77 96.785 102.77 97.645C102.77 98.495 102.745 99.35 102.695 100.21C102.555 100.01 102.47 99.785 102.44 99.535C102.42 99.275 102.41 99.025 102.41 98.785L102.44 98.035L102.605 97.96C102.575 97.68 102.56 97.39 102.56 97.09C102.56 96.74 102.575 96.4 102.605 96.07C102.635 95.73 102.665 95.385 102.695 95.035H102.575L102.425 97.39L102.5 95.035C102.23 95.035 101.965 95.06 101.705 95.11C101.445 95.16 101.18 95.185 100.91 95.185C100.4 95.185 99.89 95.175 99.38 95.155C98.88 95.135 98.375 95.115 97.865 95.095C97.865 95.655 97.835 96.21 97.775 96.76C97.725 97.3 97.7 97.845 97.7 98.395C97.7 98.475 97.705 98.58 97.715 98.71C97.735 98.83 97.745 98.96 97.745 99.1C97.745 99.23 97.73 99.345 97.7 99.445C97.67 99.545 97.615 99.61 97.535 99.64L97.43 99.61L97.445 98.05C97.425 98.31 97.41 98.57 97.4 98.83C97.39 99.09 97.385 99.35 97.385 99.61C97.355 99.6 97.31 99.595 97.25 99.595C97.18 99.595 97.135 99.6 97.115 99.61C97.125 99.64 97.13 99.68 97.13 99.73C97.13 99.97 97.01 100.12 96.77 100.18C96.68 100.14 96.605 100.105 96.545 100.075C96.485 100.045 96.435 100.005 96.395 99.955C96.355 99.895 96.325 99.825 96.305 99.745C96.285 99.665 96.275 99.555 96.275 99.415V99.16L96.2 99.655C96.12 99.575 96.07 99.49 96.05 99.4C96.03 99.31 96.02 99.215 96.02 99.115C96.02 98.865 96.03 98.62 96.05 98.38C96.07 98.13 96.08 97.88 96.08 97.63L96.2 97.555C96.17 97.225 96.155 96.895 96.155 96.565C96.155 96.245 96.16 95.92 96.17 95.59C96.19 95.26 96.2 94.93 96.2 94.6C96.2 94.37 96.195 94.135 96.185 93.895C96.175 93.655 96.15 93.42 96.11 93.19H96.02C96.04 93.59 96.05 93.99 96.05 94.39C96.06 94.79 96.065 95.19 96.065 95.59V97.465C96.065 96.465 96.035 95.465 95.975 94.465C95.925 93.465 95.9 92.465 95.9 91.465C95.95 90.985 95.99 90.57 96.02 90.22C96.06 89.87 96.105 89.485 96.155 89.065C96.255 89.075 96.365 89.09 96.485 89.11C96.615 89.13 96.68 89.21 96.68 89.35L96.65 89.605H96.845C96.865 89.545 96.89 89.475 96.92 89.395C96.96 89.305 97.005 89.225 97.055 89.155C97.105 89.075 97.16 89.01 97.22 88.96C97.29 88.9 97.365 88.87 97.445 88.87C97.545 88.87 97.62 88.945 97.67 89.095C97.73 89.235 97.775 89.42 97.805 89.65C97.835 89.88 97.855 90.15 97.865 90.46C97.875 90.76 97.88 91.065 97.88 91.375C97.88 91.545 97.875 91.71 97.865 91.87C97.865 92.03 97.865 92.185 97.865 92.335C97.865 92.535 97.865 92.725 97.865 92.905C97.875 93.075 97.885 93.23 97.895 93.37H98.69L98.81 93.55C98.95 93.53 99.085 93.515 99.215 93.505C99.345 93.495 99.48 93.49 99.62 93.49C99.73 93.49 99.845 93.495 99.965 93.505C100.085 93.505 100.2 93.505 100.31 93.505C100.5 93.505 100.685 93.495 100.865 93.475C101.055 93.455 101.245 93.42 101.435 93.37V93.28C101.085 93.33 100.74 93.36 100.4 93.37C100.09 93.37 99.775 93.37 99.455 93.37C99.945 93.35 100.445 93.315 100.955 93.265C101.485 93.215 102.015 93.18 102.545 93.16C102.545 92.58 102.565 92 102.605 91.42C102.645 90.84 102.665 90.265 102.665 89.695L102.65 89.38L103.025 89.35C103.065 89.35 103.095 89.375 103.115 89.425C103.145 89.465 103.17 89.515 103.19 89.575C103.21 89.625 103.225 89.68 103.235 89.74C103.245 89.79 103.25 89.825 103.25 89.845C103.28 89.815 103.315 89.77 103.355 89.71C103.395 89.65 103.435 89.59 103.475 89.53C103.525 89.47 103.57 89.42 103.61 89.38C103.65 89.33 103.68 89.305 103.7 89.305C103.87 89.305 104.005 89.335 104.105 89.395C104.205 89.455 104.28 89.54 104.33 89.65C104.39 89.75 104.425 89.865 104.435 89.995C104.455 90.125 104.465 90.255 104.465 90.385C104.465 90.485 104.46 90.585 104.45 90.685C104.45 90.775 104.45 90.86 104.45 90.94V92.815C104.45 93.785 104.395 94.755 104.285 95.725C104.175 96.685 104.12 97.645 104.12 98.605C104.12 98.675 104.13 98.805 104.15 98.995C104.18 99.175 104.195 99.355 104.195 99.535C104.195 99.675 104.18 99.795 104.15 99.895C104.12 99.985 104.065 100.03 103.985 100.03C103.915 99.66 103.87 99.28 103.85 98.89C103.85 99.27 103.865 99.65 103.895 100.03L103.76 100C103.74 100.14 103.695 100.275 103.625 100.405C103.565 100.535 103.46 100.625 103.31 100.675ZM96.395 97.375C96.425 97.015 96.44 96.65 96.44 96.28C96.44 96.02 96.435 95.765 96.425 95.515C96.415 95.285 96.4 95.05 96.38 94.81C96.38 95.14 96.38 95.47 96.38 95.8C96.39 96.14 96.395 96.485 96.395 96.835V97.375ZM99.59 93.76C99.74 93.76 99.89 93.755 100.04 93.745C100.2 93.735 100.355 93.72 100.505 93.7H100.205C99.995 93.7 99.785 93.705 99.575 93.715C99.375 93.725 99.17 93.73 98.96 93.73C99.07 93.75 99.175 93.76 99.275 93.76H99.59ZM97.91 93.745H98.87C98.84 93.745 98.81 93.74 98.78 93.73C98.69 93.72 98.585 93.71 98.465 93.7C98.345 93.69 98.23 93.68 98.12 93.67C98.02 93.66 97.95 93.65 97.91 93.64V93.745ZM103.88 96.775C103.86 97.105 103.85 97.435 103.85 97.765C103.87 97.445 103.89 97.115 103.91 96.775C103.94 96.425 103.975 96.08 104.015 95.74C103.955 96.08 103.91 96.425 103.88 96.775ZM98.81 94.795C98.51 94.765 98.21 94.75 97.91 94.75L97.895 94.795H98.81ZM118.616 100.93C119.056 101.07 119.506 101.14 119.966 101.14C120.486 101.14 120.971 101.06 121.421 100.9C121.871 100.74 122.281 100.52 122.651 100.24C123.021 99.96 123.346 99.635 123.626 99.265C123.826 99.005 124.001 98.725 124.151 98.425C124.021 98.705 123.871 98.98 123.701 99.25C123.461 99.63 123.161 99.965 122.801 100.255C122.451 100.545 122.046 100.775 121.586 100.945C121.126 101.125 120.606 101.215 120.026 101.215H119.831C119.001 101.215 118.281 101.03 117.671 100.66C117.061 100.29 116.556 99.82 116.156 99.25C115.756 98.67 115.456 98.025 115.256 97.315C115.066 96.605 114.971 95.905 114.971 95.215C114.971 94.925 114.986 94.62 115.016 94.3C115.046 93.97 115.111 93.64 115.211 93.31C115.311 92.98 115.451 92.66 115.631 92.35C115.821 92.03 116.076 91.74 116.396 91.48C116.656 91.27 116.936 91.095 117.236 90.955C117.546 90.805 117.851 90.72 118.151 90.7C118.121 90.72 118.106 90.74 118.106 90.76C118.106 90.8 118.126 90.845 118.166 90.895C118.216 90.935 118.241 90.98 118.241 91.03V91.06C118.241 91.1 118.216 91.13 118.166 91.15C118.126 91.17 118.056 91.2 117.956 91.24C117.856 91.27 117.726 91.32 117.566 91.39C117.406 91.46 117.216 91.565 116.996 91.705C117.056 91.765 117.086 91.81 117.086 91.84C117.276 91.74 117.451 91.67 117.611 91.63C117.771 91.59 117.921 91.57 118.061 91.57C118.351 91.57 118.561 91.62 118.691 91.72C118.821 91.82 118.886 91.895 118.886 91.945C118.886 92.025 118.821 92.09 118.691 92.14C118.571 92.19 118.426 92.255 118.256 92.335C118.096 92.405 117.926 92.505 117.746 92.635C117.566 92.755 117.426 92.935 117.326 93.175C117.166 93.415 117.041 93.715 116.951 94.075C116.871 94.435 116.831 94.8 116.831 95.17C116.831 95.8 116.906 96.375 117.056 96.895C117.206 97.415 117.416 97.865 117.686 98.245C117.966 98.625 118.301 98.92 118.691 99.13C119.091 99.34 119.541 99.445 120.041 99.445C120.521 99.445 120.951 99.325 121.331 99.085C121.721 98.845 122.051 98.52 122.321 98.11C122.591 97.69 122.796 97.21 122.936 96.67C123.076 96.12 123.146 95.535 123.146 94.915C123.146 94.615 123.126 94.32 123.086 94.03C123.056 93.73 122.986 93.445 122.876 93.175C122.776 92.905 122.631 92.65 122.441 92.41C122.261 92.17 122.021 91.95 121.721 91.75C121.341 91.55 121.031 91.41 120.791 91.33C120.551 91.24 120.431 91.155 120.431 91.075C120.431 91.045 120.451 91.01 120.491 90.97C120.991 91.08 121.441 91.26 121.841 91.51C122.211 91.74 122.521 92.04 122.771 92.41C122.501 92 122.196 91.685 121.856 91.465C121.486 91.215 121.046 91.02 120.536 90.88C120.586 90.83 120.611 90.785 120.611 90.745C120.611 90.705 120.536 90.67 120.386 90.64C120.246 90.61 120.091 90.575 119.921 90.535C119.751 90.495 119.591 90.445 119.441 90.385C119.301 90.325 119.231 90.25 119.231 90.16C119.231 90.05 119.321 89.97 119.501 89.92C119.681 89.87 119.901 89.81 120.161 89.74C120.231 89.74 120.296 89.75 120.356 89.77C120.426 89.79 120.486 89.81 120.536 89.83C121.026 89.92 121.491 90.08 121.931 90.31C122.381 90.54 122.781 90.835 123.131 91.195C123.491 91.555 123.791 91.985 124.031 92.485C124.271 92.975 124.426 93.53 124.496 94.15C124.446 93.56 124.311 93.025 124.091 92.545C123.881 92.055 123.601 91.62 123.251 91.24C122.911 90.86 122.511 90.54 122.051 90.28C121.591 90.02 121.101 89.82 120.581 89.68C121.041 89.68 121.496 89.775 121.946 89.965C122.406 90.145 122.826 90.415 123.206 90.775C123.586 91.125 123.916 91.56 124.196 92.08C124.476 92.6 124.676 93.195 124.796 93.865C124.776 93.865 124.746 93.875 124.706 93.895C124.666 93.905 124.636 93.91 124.616 93.91C124.706 94.42 124.751 94.915 124.751 95.395C124.751 96.095 124.641 96.78 124.421 97.45C124.211 98.12 123.901 98.72 123.491 99.25C123.091 99.77 122.596 100.19 122.006 100.51C121.416 100.84 120.741 101.005 119.981 101.005C119.531 101.005 119.091 100.94 118.661 100.81C118.231 100.68 117.831 100.505 117.461 100.285C117.481 100.305 117.491 100.325 117.491 100.345C117.491 100.365 117.466 100.375 117.416 100.375C117.786 100.615 118.186 100.8 118.616 100.93ZM124.526 95.56C124.476 95.95 124.401 96.355 124.301 96.775C124.211 97.185 124.081 97.59 123.911 97.99C123.751 98.39 123.546 98.765 123.296 99.115C123.046 99.455 122.751 99.75 122.411 100C122.751 99.76 123.051 99.475 123.311 99.145C123.571 98.805 123.786 98.435 123.956 98.035C124.136 97.635 124.271 97.215 124.361 96.775C124.461 96.325 124.521 95.88 124.541 95.44C124.531 95.47 124.526 95.51 124.526 95.56ZM123.326 96.43C123.246 96.81 123.126 97.18 122.966 97.54C122.806 97.89 122.601 98.205 122.351 98.485C122.611 98.215 122.821 97.905 122.981 97.555C123.141 97.205 123.256 96.83 123.326 96.43ZM124.871 95.11C124.871 95.28 124.861 95.455 124.841 95.635C124.831 95.805 124.816 95.98 124.796 96.16C124.796 95.99 124.806 95.8 124.826 95.59C124.846 95.37 124.856 95.13 124.856 94.87V94.6C124.866 94.68 124.871 94.765 124.871 94.855V95.11ZM123.326 96.43C123.376 96.21 123.411 95.99 123.431 95.77C123.461 95.54 123.476 95.31 123.476 95.08C123.476 94.83 123.461 94.575 123.431 94.315C123.441 94.425 123.446 94.53 123.446 94.63C123.456 94.73 123.461 94.835 123.461 94.945C123.461 95.455 123.416 95.95 123.326 96.43ZM124.796 96.25L124.661 96.985C124.611 97.165 124.561 97.345 124.511 97.525C124.461 97.695 124.401 97.865 124.331 98.035C124.441 97.725 124.531 97.415 124.601 97.105C124.681 96.795 124.746 96.49 124.796 96.19V96.25ZM117.431 100.405C117.431 100.395 117.426 100.385 117.416 100.375C117.416 100.385 117.421 100.395 117.431 100.405ZM124.331 98.035C124.311 98.075 124.296 98.11 124.286 98.14C124.296 98.11 124.311 98.075 124.331 98.035ZM124.166 98.395C124.186 98.365 124.201 98.335 124.211 98.305C124.201 98.335 124.186 98.365 124.166 98.395ZM122.861 92.53C122.851 92.51 122.836 92.49 122.816 92.47C122.826 92.49 122.841 92.51 122.861 92.53ZM124.286 98.14C124.266 98.19 124.246 98.24 124.226 98.29C124.246 98.24 124.266 98.19 124.286 98.14ZM144.249 90.52C143.479 90.52 142.714 90.545 141.954 90.595C141.194 90.635 140.434 90.655 139.674 90.655C139.804 90.665 139.929 90.675 140.049 90.685C140.179 90.685 140.314 90.685 140.454 90.685C140.914 90.685 141.369 90.68 141.819 90.67C142.279 90.65 142.739 90.64 143.199 90.64H143.649C143.799 90.64 143.954 90.645 144.114 90.655C143.974 90.745 143.824 90.81 143.664 90.85C143.514 90.89 143.359 90.92 143.199 90.94C143.049 90.95 142.889 90.955 142.719 90.955C142.559 90.955 142.399 90.96 142.239 90.97L142.104 90.79C141.874 90.83 141.644 90.855 141.414 90.865C141.184 90.875 140.954 90.88 140.724 90.88L139.389 90.865L139.404 91L141.909 90.985C141.059 91.035 140.224 91.065 139.404 91.075C139.414 91.205 139.424 91.335 139.434 91.465C139.444 91.585 139.459 91.71 139.479 91.84L139.299 91.885C139.379 92.225 139.434 92.6 139.464 93.01C139.504 93.41 139.539 93.82 139.569 94.24C139.599 94.66 139.639 95.075 139.689 95.485C139.749 95.885 139.834 96.25 139.944 96.58L139.989 96.535C139.929 96.195 139.874 95.83 139.824 95.44C139.774 95.04 139.724 94.635 139.674 94.225C139.634 93.805 139.594 93.395 139.554 92.995C139.524 92.615 139.499 92.26 139.479 91.93C139.519 92.46 139.579 93.015 139.659 93.595C139.749 94.185 139.844 94.785 139.944 95.395C140.044 95.995 140.139 96.59 140.229 97.18C140.329 97.77 140.419 98.335 140.499 98.875C140.519 99.045 140.544 99.23 140.574 99.43C140.604 99.62 140.619 99.815 140.619 100.015V100.195C140.619 100.265 140.609 100.33 140.589 100.39C140.519 100.39 140.449 100.4 140.379 100.42C140.319 100.45 140.254 100.465 140.184 100.465C140.074 100.465 140.004 100.41 139.974 100.3C139.954 100.19 139.944 100.095 139.944 100.015H139.809C139.799 100.075 139.779 100.15 139.749 100.24C139.729 100.34 139.694 100.435 139.644 100.525C139.604 100.615 139.549 100.69 139.479 100.75C139.419 100.81 139.349 100.84 139.269 100.84C139.169 100.84 139.079 100.77 138.999 100.63C138.919 100.49 138.844 100.31 138.774 100.09C138.714 99.87 138.659 99.63 138.609 99.37C138.569 99.1 138.529 98.845 138.489 98.605C138.459 98.355 138.429 98.13 138.399 97.93C138.379 97.73 138.359 97.585 138.339 97.495C138.239 97.075 138.144 96.615 138.054 96.115C137.974 95.615 137.904 95.11 137.844 94.6C137.784 94.09 137.734 93.585 137.694 93.085C137.664 92.575 137.649 92.1 137.649 91.66C137.649 91.59 137.649 91.525 137.649 91.465C137.659 91.395 137.664 91.325 137.664 91.255V91.165C137.664 91.125 137.659 91.085 137.649 91.045C137.059 91.035 136.499 91.01 135.969 90.97C135.439 90.92 134.849 90.855 134.199 90.775C134.209 90.715 134.214 90.65 134.214 90.58C134.214 90.51 134.219 90.445 134.229 90.385C134.249 90.325 134.274 90.275 134.304 90.235C134.344 90.185 134.409 90.16 134.499 90.16C134.559 90.16 134.629 90.17 134.709 90.19L134.754 90.055C134.634 90.005 134.494 89.925 134.334 89.815C134.174 89.705 134.094 89.575 134.094 89.425C134.094 89.335 134.129 89.27 134.199 89.23C134.269 89.18 134.354 89.145 134.454 89.125C134.554 89.105 134.654 89.095 134.754 89.095C134.854 89.085 134.929 89.08 134.979 89.08C135.339 89.08 135.694 89.1 136.044 89.14C136.404 89.18 136.764 89.2 137.124 89.2C138.034 89.2 138.939 89.215 139.839 89.245C140.739 89.265 141.644 89.275 142.554 89.275C142.734 89.275 142.909 89.25 143.079 89.2C143.259 89.15 143.439 89.125 143.619 89.125C143.689 89.125 143.749 89.145 143.799 89.185C143.859 89.225 143.889 89.285 143.889 89.365C143.619 89.415 143.344 89.455 143.064 89.485C142.814 89.505 142.559 89.525 142.299 89.545C142.559 89.545 142.814 89.535 143.064 89.515C143.334 89.495 143.609 89.475 143.889 89.455V89.74L144.159 89.695C144.239 89.715 144.314 89.755 144.384 89.815C144.454 89.865 144.489 89.94 144.489 90.04C144.489 90.13 144.464 90.22 144.414 90.31C144.364 90.39 144.309 90.46 144.249 90.52ZM138.984 91.075C139.004 91.365 139.029 91.685 139.059 92.035C139.099 92.385 139.139 92.74 139.179 93.1C139.219 93.46 139.259 93.815 139.299 94.165C139.349 94.505 139.394 94.82 139.434 95.11C139.404 94.83 139.369 94.515 139.329 94.165C139.299 93.815 139.269 93.46 139.239 93.1C139.209 92.74 139.179 92.385 139.149 92.035C139.129 91.685 139.119 91.365 139.119 91.075H138.984ZM141.714 89.545H140.889C140.639 89.545 140.389 89.54 140.139 89.53C140.259 89.55 140.374 89.57 140.484 89.59C140.624 89.62 140.779 89.635 140.949 89.635C141.069 89.635 141.194 89.625 141.324 89.605C141.464 89.585 141.594 89.565 141.714 89.545ZM139.044 91H139.119V90.865H139.044V91ZM159.967 95.125C159.577 94.985 159.172 94.895 158.752 94.855C158.352 94.805 157.942 94.76 157.522 94.72C157.902 94.78 158.292 94.835 158.692 94.885C159.112 94.935 159.507 95.045 159.877 95.215C159.837 95.255 159.797 95.29 159.757 95.32C159.717 95.35 159.677 95.365 159.637 95.365C159.497 95.365 159.362 95.35 159.232 95.32C159.102 95.28 158.962 95.26 158.812 95.26V95.08C158.762 95.09 158.692 95.095 158.602 95.095C158.352 95.095 158.107 95.06 157.867 94.99C157.627 94.92 157.382 94.885 157.132 94.885C157.002 94.885 156.877 94.9 156.757 94.93V94.99C157.077 95.01 157.402 95.045 157.732 95.095C158.072 95.135 158.417 95.19 158.767 95.26C158.447 95.21 158.102 95.165 157.732 95.125C157.372 95.085 157.032 95.065 156.712 95.065C156.582 95.065 156.457 95.07 156.337 95.08C156.227 95.08 156.117 95.085 156.007 95.095C156.007 95.305 156.012 95.55 156.022 95.83C156.032 96.11 156.052 96.385 156.082 96.655C156.112 96.915 156.147 97.145 156.187 97.345C156.227 97.545 156.277 97.675 156.337 97.735L156.472 98.005C156.592 98.375 156.992 98.56 157.672 98.56C157.822 98.56 158.002 98.54 158.212 98.5C158.422 98.46 158.632 98.415 158.842 98.365C159.062 98.305 159.267 98.255 159.457 98.215C159.657 98.175 159.827 98.155 159.967 98.155C160.107 98.155 160.187 98.175 160.207 98.215C160.227 98.255 160.237 98.31 160.237 98.38C159.817 98.43 159.412 98.505 159.022 98.605C158.682 98.695 158.352 98.765 158.032 98.815C158.352 98.765 158.677 98.705 159.007 98.635C159.397 98.545 159.792 98.475 160.192 98.425C160.172 98.485 160.162 98.525 160.162 98.545C160.162 98.605 160.187 98.655 160.237 98.695L160.447 98.665C160.507 98.655 160.567 98.65 160.627 98.65C160.687 98.64 160.742 98.625 160.792 98.605C160.972 98.655 161.097 98.71 161.167 98.77C161.247 98.83 161.287 98.895 161.287 98.965C161.287 99.095 161.222 99.185 161.092 99.235C160.972 99.285 160.857 99.365 160.747 99.475H160.687C160.397 99.475 160.117 99.5 159.847 99.55C159.577 99.59 159.307 99.635 159.037 99.685C158.777 99.735 158.507 99.785 158.227 99.835C157.957 99.875 157.677 99.895 157.387 99.895H157.177H157.087C157.277 99.915 157.482 99.925 157.702 99.925C157.982 99.925 158.242 99.91 158.482 99.88C158.732 99.85 158.972 99.815 159.202 99.775C159.432 99.735 159.652 99.7 159.862 99.67C160.082 99.64 160.302 99.625 160.522 99.625C160.362 99.705 160.167 99.785 159.937 99.865C159.707 99.935 159.452 99.995 159.172 100.045C158.892 100.105 158.602 100.15 158.302 100.18C158.002 100.22 157.707 100.24 157.417 100.24C157.217 100.24 157.022 100.23 156.832 100.21C156.642 100.19 156.437 100.125 156.217 100.015L156.202 99.85C156.062 99.8 155.912 99.71 155.752 99.58C155.602 99.44 155.462 99.295 155.332 99.145C155.202 98.995 155.092 98.855 155.002 98.725C154.912 98.595 154.867 98.51 154.867 98.47L154.822 98.335C154.732 98.145 154.657 97.935 154.597 97.705C154.547 97.475 154.507 97.245 154.477 97.015C154.447 96.775 154.422 96.54 154.402 96.31C154.382 96.08 154.367 95.865 154.357 95.665C154.337 95.335 154.322 95.005 154.312 94.675C154.302 94.335 154.297 93.995 154.297 93.655C154.297 93.315 154.297 92.975 154.297 92.635C154.307 92.285 154.312 91.935 154.312 91.585H154.267C154.217 91.965 154.187 92.33 154.177 92.68C154.177 93.03 154.177 93.38 154.177 93.73V94.315C154.177 95.015 154.212 95.745 154.282 96.505C154.362 97.265 154.557 98.005 154.867 98.725C154.637 98.335 154.492 97.95 154.432 97.57C154.372 97.18 154.317 96.82 154.267 96.49C154.207 96.06 154.162 95.645 154.132 95.245C154.112 94.845 154.102 94.435 154.102 94.015V93.7C154.102 93.12 154.117 92.53 154.147 91.93C154.177 91.33 154.267 90.695 154.417 90.025C154.357 90.025 154.327 89.995 154.327 89.935C154.327 89.875 154.357 89.79 154.417 89.68C154.487 89.57 154.572 89.465 154.672 89.365C154.772 89.255 154.882 89.165 155.002 89.095C155.132 89.015 155.257 88.975 155.377 88.975H158.947C159.317 89.045 159.677 89.105 160.027 89.155C160.387 89.195 160.762 89.225 161.152 89.245L161.137 89.59C161.137 89.65 161.107 89.7 161.047 89.74C160.997 89.77 160.877 89.785 160.687 89.785C160.627 89.785 160.552 89.785 160.462 89.785C160.382 89.775 160.292 89.765 160.192 89.755V89.89C160.602 89.98 160.922 90.09 161.152 90.22C161.392 90.35 161.512 90.475 161.512 90.595C161.512 90.735 161.377 90.82 161.107 90.85C160.847 90.88 160.497 90.895 160.057 90.895C159.497 90.895 158.897 90.895 158.257 90.895C157.627 90.885 157.017 90.855 156.427 90.805H156.172C156.122 91.185 156.087 91.575 156.067 91.975C156.047 92.375 156.032 92.785 156.022 93.205C156.182 93.205 156.337 93.2 156.487 93.19C156.647 93.17 156.812 93.16 156.982 93.16C157.122 93.16 157.282 93.175 157.462 93.205C157.652 93.225 157.847 93.255 158.047 93.295C158.257 93.335 158.462 93.385 158.662 93.445C158.872 93.495 159.062 93.55 159.232 93.61C159.262 93.62 159.297 93.625 159.337 93.625H159.592C159.722 93.625 159.807 93.645 159.847 93.685C159.897 93.725 159.922 93.805 159.922 93.925C159.752 93.925 159.592 93.915 159.442 93.895C159.292 93.875 159.147 93.855 159.007 93.835C159.147 93.885 159.292 93.925 159.442 93.955C159.592 93.975 159.752 93.995 159.922 94.015C159.902 94.065 159.887 94.11 159.877 94.15C159.877 94.19 159.877 94.225 159.877 94.255C159.977 94.275 160.042 94.325 160.072 94.405C160.112 94.475 160.132 94.555 160.132 94.645C160.132 94.775 160.102 94.88 160.042 94.96C159.992 95.03 159.967 95.085 159.967 95.125ZM154.687 96.82C154.727 97.06 154.772 97.32 154.822 97.6C154.882 97.87 154.967 98.14 155.077 98.41C155.197 98.67 155.357 98.915 155.557 99.145C155.717 99.335 155.927 99.495 156.187 99.625C155.887 99.465 155.642 99.245 155.452 98.965C155.232 98.625 155.057 98.245 154.927 97.825C154.807 97.405 154.717 96.96 154.657 96.49C154.607 96.02 154.567 95.57 154.537 95.14C154.547 95.41 154.562 95.685 154.582 95.965C154.602 96.245 154.637 96.53 154.687 96.82ZM158.362 93.76C158.532 93.79 158.712 93.815 158.902 93.835C158.722 93.785 158.552 93.75 158.392 93.73C158.232 93.7 158.072 93.665 157.912 93.625C158.042 93.685 158.192 93.73 158.362 93.76ZM155.902 99.91C155.772 99.85 155.657 99.78 155.557 99.7C155.487 99.64 155.422 99.58 155.362 99.52C155.422 99.58 155.492 99.635 155.572 99.685C155.682 99.765 155.792 99.84 155.902 99.91ZM156.352 99.7L156.217 99.64L156.352 99.7ZM171.804 95.665C171.834 96.365 171.864 97.065 171.894 97.765C171.934 98.465 171.964 99.165 171.984 99.865V99.94L171.939 99.895V99.79C171.889 98.89 171.839 98.005 171.789 97.135C171.749 96.255 171.729 95.365 171.729 94.465V92.77C171.729 92.5 171.729 92.235 171.729 91.975C171.739 91.705 171.749 91.435 171.759 91.165C171.769 90.855 171.794 90.555 171.834 90.265C171.874 89.965 171.894 89.655 171.894 89.335H171.954C172.024 89.335 172.084 89.33 172.134 89.32C172.184 89.31 172.224 89.305 172.254 89.305C172.354 89.305 172.414 89.37 172.434 89.5C172.454 89.63 172.464 89.73 172.464 89.8L172.449 90.115H172.629C172.639 90.055 172.654 89.96 172.674 89.83C172.704 89.69 172.744 89.55 172.794 89.41C172.844 89.27 172.899 89.15 172.959 89.05C173.029 88.94 173.109 88.885 173.199 88.885C173.299 88.885 173.374 88.975 173.424 89.155C173.484 89.335 173.529 89.55 173.559 89.8C173.589 90.04 173.604 90.29 173.604 90.55C173.614 90.8 173.619 91 173.619 91.15V91.33C173.619 92.48 173.629 93.63 173.649 94.78C173.669 95.93 173.679 97.08 173.679 98.23C173.679 98.32 173.674 98.415 173.664 98.515C173.664 98.605 173.664 98.695 173.664 98.785C173.664 98.835 173.664 98.88 173.664 98.92C173.674 98.96 173.679 99.005 173.679 99.055H173.829C173.919 99.055 174.009 99.06 174.099 99.07C174.189 99.07 174.279 99.07 174.369 99.07C174.999 99.07 175.619 99.04 176.229 98.98C176.849 98.91 177.474 98.875 178.104 98.875H178.164C178.264 98.875 178.384 98.89 178.524 98.92C178.664 98.94 178.734 99.01 178.734 99.13V99.16C178.204 99.16 177.684 99.18 177.174 99.22C176.664 99.25 176.144 99.29 175.614 99.34C176.004 99.32 176.389 99.295 176.769 99.265C177.159 99.235 177.549 99.22 177.939 99.22C178.069 99.22 178.194 99.225 178.314 99.235C178.434 99.235 178.559 99.24 178.689 99.25L178.629 99.43C178.689 99.44 178.769 99.455 178.869 99.475C178.969 99.485 179.064 99.51 179.154 99.55C179.254 99.59 179.339 99.64 179.409 99.7C179.479 99.75 179.514 99.815 179.514 99.895C179.514 100.035 179.449 100.13 179.319 100.18C179.189 100.24 179.069 100.295 178.959 100.345C178.809 100.295 178.649 100.265 178.479 100.255C178.319 100.255 178.159 100.255 177.999 100.255C177.649 100.255 177.304 100.27 176.964 100.3C176.644 100.33 176.319 100.36 175.989 100.39C176.229 100.38 176.459 100.37 176.679 100.36C176.929 100.35 177.179 100.345 177.429 100.345C177.649 100.345 177.864 100.35 178.074 100.36C178.294 100.37 178.514 100.395 178.734 100.435C178.554 100.515 178.329 100.575 178.059 100.615C177.799 100.655 177.524 100.685 177.234 100.705C176.954 100.725 176.674 100.735 176.394 100.735C176.114 100.745 175.869 100.755 175.659 100.765L175.524 100.615C175.304 100.665 175.084 100.695 174.864 100.705C174.644 100.725 174.419 100.735 174.189 100.735C173.949 100.735 173.709 100.725 173.469 100.705C173.229 100.685 172.994 100.655 172.764 100.615C172.654 100.495 172.544 100.375 172.434 100.255C172.324 100.145 172.204 100.035 172.074 99.925C172.074 99.205 172.054 98.495 172.014 97.795C171.984 97.095 171.944 96.385 171.894 95.665H171.804ZM174.999 100.465C174.759 100.475 174.509 100.48 174.249 100.48C173.939 100.48 173.649 100.47 173.379 100.45C173.109 100.43 172.919 100.395 172.809 100.345L172.359 99.91L172.224 98.14V98.47C172.224 98.7 172.239 98.93 172.269 99.16C172.299 99.39 172.314 99.62 172.314 99.85V99.94C172.394 100.02 172.469 100.1 172.539 100.18C172.619 100.26 172.694 100.345 172.764 100.435H172.869C173.089 100.435 173.304 100.445 173.514 100.465C173.734 100.495 173.954 100.51 174.174 100.51C174.404 100.51 174.629 100.5 174.849 100.48C174.929 100.48 175.014 100.475 175.104 100.465H174.999ZM173.724 99.415C173.774 99.425 173.824 99.435 173.874 99.445C173.934 99.445 173.994 99.445 174.054 99.445C174.314 99.445 174.574 99.44 174.834 99.43C175.094 99.42 175.354 99.39 175.614 99.34C175.294 99.36 174.979 99.37 174.669 99.37C174.359 99.37 174.044 99.375 173.724 99.385V99.415ZM172.719 100.72C172.889 100.77 173.064 100.8 173.244 100.81C173.434 100.83 173.629 100.84 173.829 100.84C173.949 100.84 174.064 100.835 174.174 100.825C174.274 100.825 174.369 100.825 174.459 100.825C174.399 100.835 174.329 100.84 174.249 100.84C174.169 100.85 174.089 100.855 174.009 100.855H173.709C173.589 100.855 173.464 100.85 173.334 100.84C173.214 100.83 173.094 100.82 172.974 100.81C172.864 100.8 172.784 100.785 172.734 100.765C172.704 100.735 172.654 100.68 172.584 100.6C172.514 100.53 172.439 100.455 172.359 100.375C172.279 100.295 172.204 100.215 172.134 100.135C172.074 100.065 172.039 100.02 172.029 100L172.719 100.72ZM173.334 99.355L173.004 99.295C173.064 99.315 173.154 99.355 173.274 99.415C173.394 99.465 173.484 99.495 173.544 99.505L173.499 99.34L173.334 99.355ZM188.592 98.995C188.592 98.935 188.627 98.88 188.697 98.83C188.767 98.78 188.847 98.735 188.937 98.695C189.037 98.655 189.132 98.62 189.222 98.59C189.322 98.56 189.397 98.535 189.447 98.515C189.927 98.575 190.407 98.625 190.887 98.665C191.367 98.705 191.847 98.725 192.327 98.725C192.507 98.725 192.757 98.725 193.077 98.725C193.397 98.715 193.747 98.695 194.127 98.665C194.507 98.635 194.892 98.59 195.282 98.53C195.672 98.46 196.027 98.365 196.347 98.245C196.667 98.125 196.927 97.975 197.127 97.795C197.327 97.615 197.427 97.39 197.427 97.12C197.427 96.9 197.377 96.705 197.277 96.535C197.187 96.355 197.062 96.2 196.902 96.07C196.752 95.93 196.582 95.815 196.392 95.725C196.322 95.685 196.247 95.65 196.167 95.62C196.247 95.66 196.322 95.7 196.392 95.74C196.572 95.84 196.732 95.965 196.872 96.115C197.022 96.255 197.142 96.415 197.232 96.595C197.322 96.765 197.367 96.96 197.367 97.18C197.367 97.42 197.277 97.625 197.097 97.795C196.927 97.955 196.702 98.09 196.422 98.2C196.152 98.31 195.847 98.395 195.507 98.455C195.177 98.515 194.847 98.56 194.517 98.59C194.187 98.62 193.882 98.64 193.602 98.65C193.322 98.65 193.102 98.65 192.942 98.65C192.432 98.65 191.917 98.635 191.397 98.605C190.887 98.565 190.377 98.52 189.867 98.47C190.047 98.42 190.227 98.385 190.407 98.365C190.597 98.335 190.787 98.32 190.977 98.32C191.297 98.32 191.612 98.325 191.922 98.335C192.232 98.335 192.542 98.335 192.852 98.335C193.222 98.335 193.587 98.33 193.947 98.32C194.307 98.3 194.677 98.26 195.057 98.2L195.102 98.38C195.252 98.35 195.442 98.305 195.672 98.245C195.902 98.175 196.122 98.09 196.332 97.99C196.552 97.89 196.737 97.765 196.887 97.615C197.047 97.465 197.127 97.29 197.127 97.09C197.127 96.8 197.022 96.545 196.812 96.325C196.602 96.105 196.332 95.91 196.002 95.74C195.682 95.56 195.317 95.405 194.907 95.275C194.497 95.145 194.092 95.03 193.692 94.93C193.302 94.83 192.932 94.74 192.582 94.66C192.232 94.58 191.952 94.505 191.742 94.435V94.525C191.952 94.605 192.227 94.69 192.567 94.78C192.907 94.86 193.272 94.95 193.662 95.05C194.062 95.15 194.462 95.265 194.862 95.395C195.262 95.515 195.622 95.66 195.942 95.83C196.272 96 196.537 96.195 196.737 96.415C196.947 96.635 197.052 96.885 197.052 97.165C197.052 97.325 196.977 97.465 196.827 97.585C196.677 97.705 196.497 97.81 196.287 97.9C196.087 97.98 195.882 98.045 195.672 98.095C195.462 98.145 195.302 98.18 195.192 98.2C195.322 98.17 195.487 98.13 195.687 98.08C195.897 98.02 196.097 97.945 196.287 97.855C196.487 97.765 196.657 97.66 196.797 97.54C196.937 97.41 197.007 97.26 197.007 97.09C197.007 96.81 196.897 96.575 196.677 96.385C196.457 96.195 196.167 96.025 195.807 95.875C195.447 95.725 195.037 95.59 194.577 95.47C194.117 95.35 193.642 95.22 193.152 95.08C192.672 94.94 192.202 94.78 191.742 94.6C191.282 94.42 190.872 94.195 190.512 93.925C190.152 93.655 189.862 93.335 189.642 92.965C189.422 92.595 189.312 92.15 189.312 91.63C189.312 91.12 189.432 90.69 189.672 90.34C189.922 89.98 190.237 89.69 190.617 89.47C191.007 89.24 191.432 89.075 191.892 88.975C192.352 88.875 192.797 88.825 193.227 88.825C193.857 88.825 194.472 88.915 195.072 89.095C195.682 89.275 196.257 89.525 196.797 89.845C196.737 89.865 196.702 89.895 196.692 89.935C196.682 89.965 196.672 90 196.662 90.04C196.662 90.08 196.652 90.115 196.632 90.145C196.622 90.175 196.592 90.19 196.542 90.19C196.502 90.19 196.422 90.175 196.302 90.145C196.192 90.105 196.072 90.065 195.942 90.025C195.812 89.975 195.687 89.93 195.567 89.89C195.447 89.85 195.367 89.82 195.327 89.8L195.282 89.935C195.372 89.975 195.487 90.035 195.627 90.115C195.777 90.185 195.917 90.275 196.047 90.385C196.187 90.485 196.302 90.595 196.392 90.715C196.492 90.835 196.542 90.955 196.542 91.075C196.542 91.205 196.482 91.27 196.362 91.27C196.212 91.27 196.032 91.23 195.822 91.15C195.622 91.07 195.397 90.985 195.147 90.895C194.897 90.795 194.627 90.705 194.337 90.625C194.057 90.545 193.772 90.505 193.482 90.505C193.292 90.505 193.067 90.525 192.807 90.565C192.557 90.595 192.312 90.66 192.072 90.76C191.842 90.85 191.647 90.98 191.487 91.15C191.327 91.31 191.247 91.515 191.247 91.765C191.247 91.995 191.352 92.19 191.562 92.35C191.782 92.51 192.067 92.655 192.417 92.785C192.777 92.915 193.182 93.04 193.632 93.16C194.082 93.28 194.542 93.415 195.012 93.565C195.492 93.705 195.957 93.87 196.407 94.06C196.857 94.25 197.257 94.48 197.607 94.75C197.967 95.02 198.252 95.34 198.462 95.71C198.682 96.08 198.792 96.515 198.792 97.015C198.792 97.505 198.692 97.92 198.492 98.26C198.292 98.6 198.027 98.885 197.697 99.115C197.367 99.335 196.992 99.51 196.572 99.64C196.152 99.76 195.717 99.855 195.267 99.925C194.827 99.985 194.387 100.02 193.947 100.03C193.517 100.05 193.127 100.06 192.777 100.06H191.277C191.187 100.06 191.062 100.055 190.902 100.045C190.752 100.045 190.602 100.035 190.452 100.015C190.302 100.005 190.172 99.98 190.062 99.94C189.952 99.9 189.897 99.85 189.897 99.79L189.912 99.715C190.322 99.735 190.727 99.755 191.127 99.775C191.527 99.785 191.932 99.79 192.342 99.79C192.722 99.79 193.102 99.79 193.482 99.79C193.822 99.78 194.162 99.76 194.502 99.73C194.332 99.74 194.162 99.75 193.992 99.76C193.782 99.76 193.577 99.76 193.377 99.76H192.777C191.837 99.76 190.912 99.73 190.002 99.67C190.022 99.59 190.032 99.535 190.032 99.505C190.032 99.465 190.022 99.425 190.002 99.385C189.982 99.385 189.952 99.39 189.912 99.4C189.882 99.4 189.842 99.4 189.792 99.4C189.682 99.4 189.557 99.395 189.417 99.385C189.287 99.375 189.157 99.355 189.027 99.325C188.907 99.295 188.802 99.255 188.712 99.205C188.632 99.145 188.592 99.075 188.592 98.995ZM197.802 98.605C197.632 98.755 197.452 98.88 197.262 98.98C197.092 99.07 196.917 99.155 196.737 99.235C196.917 99.175 197.092 99.105 197.262 99.025C197.452 98.945 197.632 98.805 197.802 98.605Z" fill="#E0B973"/>
<path d="M54.068 46.192C53.276 45.76 52.04 45.544 50.36 45.544C48.704 45.544 47.348 45.988 46.292 46.876C46.004 47.332 45.86 47.992 45.86 48.856C45.86 50.704 46.844 52 48.812 52.744L53.492 54.544C56.564 55.72 58.1 57.844 58.1 60.916C58.1 63.004 57.368 64.588 55.904 65.668C54.44 66.748 52.544 67.288 50.216 67.288C47 67.288 44.348 66.304 42.26 64.336L44.564 60.412L45.428 60.664L45.968 64.12C46.856 64.744 48.14 65.056 49.82 65.056C53.396 65.056 55.184 63.844 55.184 61.42C55.184 60.436 54.872 59.632 54.248 59.008C53.624 58.384 52.652 57.82 51.332 57.316L47.192 55.732C44.384 54.652 42.98 52.708 42.98 49.9C42.98 47.788 43.724 46.168 45.212 45.04C46.7 43.888 48.596 43.312 50.9 43.312C53.708 43.312 55.964 44.296 57.668 46.264L55.112 49.828L54.248 49.576L54.068 46.192ZM87.0657 46.588V64.948L90.1617 66.208L89.9457 67H81.1257L80.9097 66.208L82.8897 65.38C83.3217 65.212 83.6097 65.032 83.7537 64.84C83.9217 64.648 84.0057 64.372 84.0057 64.012V56.056H72.3777V64.948L75.4737 66.208L75.2577 67H66.4377L66.2217 66.208L68.2017 65.38C68.6337 65.212 68.9217 65.032 69.0657 64.84C69.2337 64.648 69.3177 64.372 69.3177 64.012V45.652L66.2217 44.392L66.4377 43.6H75.2577L75.4737 44.392L73.4937 45.22C73.0617 45.388 72.7617 45.568 72.5937 45.76C72.4497 45.952 72.3777 46.228 72.3777 46.588V54.004H84.0057V45.652L80.9097 44.392L81.1257 43.6H89.9457L90.1617 44.392L88.1817 45.22C87.7497 45.388 87.4497 45.568 87.2817 45.76C87.1377 45.952 87.0657 46.228 87.0657 46.588ZM104.18 46.552V54.328C106.46 54.328 108.776 54.22 111.128 54.004L112.28 53.896L112.676 54.328L112.28 56.344C109.424 56.176 106.724 56.092 104.18 56.092V65.128L111.992 64.984L113.72 61.816L114.8 62.068V67H98.24L98.024 66.208L100.004 65.38C100.436 65.212 100.724 65.032 100.868 64.84C101.036 64.648 101.12 64.372 101.12 64.012V45.652L98.024 44.392L98.24 43.6H114.62V48.532L113.54 48.784L111.812 45.616L105.152 45.472C104.504 45.472 104.18 45.832 104.18 46.552ZM131.285 56.848H129.197V64.948L132.185 66.208L131.969 67H123.257L123.041 66.208L125.021 65.38C125.453 65.212 125.741 65.032 125.885 64.84C126.053 64.648 126.137 64.372 126.137 64.012V45.652L123.041 44.392L123.257 43.6C127.217 43.408 129.929 43.312 131.393 43.312C137.609 43.312 140.717 45.544 140.717 50.008C140.717 53.536 138.821 55.72 135.029 56.56C135.293 56.8 135.533 57.148 135.749 57.604C137.381 60.94 138.593 63.1 139.385 64.084C140.177 65.068 141.401 65.74 143.057 66.1L142.805 67L138.773 67.288C137.477 66.232 136.493 65.188 135.821 64.156C135.173 63.124 134.093 61.012 132.581 57.82C132.269 57.172 131.837 56.848 131.285 56.848ZM129.197 46.192V55.012H131.537C133.313 55.012 134.705 54.808 135.713 54.4C136.241 54.016 136.649 53.572 136.937 53.068C137.225 52.54 137.369 51.772 137.369 50.764C137.369 49.204 136.949 47.908 136.109 46.876C135.293 45.82 133.937 45.292 132.041 45.292H130.169C129.521 45.292 129.197 45.592 129.197 46.192ZM165.615 64.48C165.615 64.336 165.579 64.18 165.507 64.012L163.887 59.44H155.535L153.627 64.948L156.723 66.208L156.507 67H148.551L148.335 66.208L150.315 65.38C150.723 65.212 150.975 65.056 151.071 64.912C151.191 64.768 151.335 64.468 151.503 64.012L158.703 43.96L160.899 43.312L161.619 43.6L169.359 65.056L172.167 66.208L171.951 67H163.131L162.915 66.208L164.895 65.38C165.375 65.188 165.615 64.888 165.615 64.48ZM159.675 47.488L156.147 57.604H163.239L159.675 47.488ZM194.583 43.6V48.532L193.719 48.784L191.919 45.436L187.995 45.328C187.683 45.304 187.443 45.388 187.275 45.58C187.107 45.772 187.023 46 187.023 46.264V64.948L190.119 66.208L189.903 67H181.083L180.867 66.208L182.847 65.38C183.279 65.212 183.567 65.032 183.711 64.84C183.879 64.648 183.963 64.372 183.963 64.012V45.292L179.067 45.436L177.267 48.784L176.403 48.532V43.6H194.583ZM207.62 46.948C206.132 48.988 205.388 51.616 205.388 54.832C205.388 58.048 206.06 60.556 207.404 62.356C208.772 64.156 210.74 65.056 213.308 65.056C215.444 65.056 217.184 64.612 218.528 63.724C220.016 61.9 220.76 59.332 220.76 56.02C220.76 52.684 220.076 50.116 218.708 48.316C217.364 46.516 215.42 45.616 212.876 45.616C210.764 45.616 209.012 46.06 207.62 46.948ZM202.04 55.48C202.04 53.464 202.352 51.664 202.976 50.08C203.6 48.496 204.44 47.224 205.496 46.264C207.704 44.296 210.356 43.312 213.452 43.312C216.572 43.312 219.128 44.368 221.12 46.48C223.112 48.592 224.108 51.496 224.108 55.192C224.108 57.208 223.796 59.008 223.172 60.592C222.548 62.152 221.696 63.412 220.616 64.372C218.456 66.316 215.816 67.288 212.696 67.288C209.576 67.288 207.02 66.244 205.028 64.156C203.036 62.068 202.04 59.176 202.04 55.48ZM253.424 46.588V67L250.832 67.288L237.512 48.352V64.948L240.608 66.208L240.392 67H232.256L232.04 66.208L234.02 65.38C234.452 65.212 234.74 65.032 234.884 64.84C235.052 64.648 235.136 64.372 235.136 64.012V45.652L232.04 44.392L232.256 43.6H238.268L251.012 61.744V61.816L251.048 61.744V45.652L247.952 44.392L248.168 43.6H256.304L256.52 44.392L254.54 45.22C254.108 45.388 253.808 45.568 253.64 45.76C253.496 45.952 253.424 46.228 253.424 46.588Z" fill="#E0B973"/>
</svg>
