<svg width="28" height="24" viewBox="0 0 28 24" fill="none" xmlns="http://www.w3.org/2000/svg">
<path d="M26.8333 0.333252H22.1667V3.83325H19.8333V0.333252H15.1667V3.83325H12.8333V0.333252H8.16667V3.83325H5.83333V0.333252H1.16667C0.857247 0.333252 0.560501 0.456168 0.341709 0.674961C0.122916 0.893753 0 1.1905 0 1.49992L0 22.4999C0 22.8093 0.122916 23.1061 0.341709 23.3249C0.560501 23.5437 0.857247 23.6666 1.16667 23.6666H26.8333C27.1427 23.6666 27.4395 23.5437 27.6583 23.3249C27.8771 23.1061 28 22.8093 28 22.4999V1.49992C28 1.1905 27.8771 0.893753 27.6583 0.674961C27.4395 0.456168 27.1427 0.333252 26.8333 0.333252ZM21.4887 15.2826L19.8333 14.0999V18.9999C19.8333 19.3093 19.7104 19.6061 19.4916 19.8249C19.2728 20.0437 18.9761 20.1666 18.6667 20.1666H15.75V15.4999C15.75 15.1905 15.6271 14.8938 15.4083 14.675C15.1895 14.4562 14.8927 14.3333 14.5833 14.3333H13.4167C13.1072 14.3333 12.8105 14.4562 12.5917 14.675C12.3729 14.8938 12.25 15.1905 12.25 15.4999V20.1666H9.33333C9.02391 20.1666 8.72717 20.0437 8.50837 19.8249C8.28958 19.6061 8.16667 19.3093 8.16667 18.9999V14.0999L6.51146 15.2826L5.15521 13.3839L13.3219 7.55054C13.5206 7.41124 13.7573 7.33651 14 7.33651C14.2427 7.33651 14.4794 7.41124 14.6781 7.55054L22.8448 13.3839L21.4887 15.2826Z" fill="#E0B973"/>
</svg>
